<svg xmlns="http://www.w3.org/2000/svg" width="1200" height="628" viewBox="0 0 1200 628">
  <defs>
    <linearGradient id="bg" x1="0" y1="0" x2="1" y2="1">
      <stop offset="0%" stop-color="#fff7ed"/>
      <stop offset="100%" stop-color="#eff6ff"/>
    </linearGradient>
  </defs>
  <rect width="1200" height="628" rx="48" fill="url(#bg)"/>
  <circle cx="980" cy="116" r="108" fill="#fde68a" opacity="0.7"/>
  <circle cx="180" cy="500" r="140" fill="#bfdbfe" opacity="0.65"/>
  <g transform="translate(96 96)">
    <rect x="0" y="0" width="520" height="436" rx="36" fill="#ffffff" fill-opacity="0.84" stroke="#dbeafe" stroke-width="2"/>
    <path d="M168 88c-35.3 0-64 28.7-64 64 0 47.5 64 112 64 112s64-64.5 64-112c0-35.3-28.7-64-64-64Zm0 90a26 26 0 1 1 0-52 26 26 0 0 1 0 52Z" fill="#4338ca"/>
    <text x="88" y="308" font-family="Arial, Helvetica, sans-serif" font-size="66" font-weight="700" fill="#0f172a">LocalHub</text>
    <text x="88" y="360" font-family="Arial, Helvetica, sans-serif" font-size="34" fill="#475569">서울 중간지점 · 추천장소 · 여행코스</text>
  </g>
  <text x="656" y="240" font-family="Arial, Helvetica, sans-serif" font-size="72" font-weight="700" fill="#0f172a">카카오톡으로</text>
  <text x="656" y="316" font-family="Arial, Helvetica, sans-serif" font-size="72" font-weight="700" fill="#0f172a">간편하게 공유하세요</text>
  <text x="656" y="394" font-family="Arial, Helvetica, sans-serif" font-size="32" fill="#475569">선택한 목적지와 여행 코스를 친구에게 바로 보낼 수 있습니다.</text>
</svg>